<?xml version="1.0" encoding="UTF-8"?>
<svg width="21px" height="21px" viewBox="0 0 21 21" version="1.1" xmlns="http://www.w3.org/2000/svg" xmlns:xlink="http://www.w3.org/1999/xlink">
    <!-- Generator: Sketch 61.2 (89653) - https://sketch.com -->
    <title>star</title>
    <desc>Created with Sketch.</desc>
    <g id="Page-1" stroke="none" stroke-width="1" fill="none" fill-rule="evenodd" stroke-linecap="square">
        <g id="iPhone-SE-Copy-2" transform="translate(-283.000000, -222.000000)" fill="#ECDA55" stroke="#000000">
            <g id="Group-3" transform="translate(249.000000, 220.000000)">
                <path d="M42.0995958,10.0512779 C42.9988997,5.35042596 43.7375347,3 44.315501,3 C44.8934673,3 45.8161613,5.35042596 47.083583,10.0512779 C51.4146044,9.5520219 53.7112974,9.5520219 53.9736622,10.0512779 C54.2360269,10.5505339 52.5382301,11.9313598 48.8802719,14.1937557 C51.3938464,17.8514329 52.4329181,19.8833184 51.997487,20.289412 C51.5620559,20.6955057 49.2279178,19.6412315 44.9950727,17.1265895 C41.3665744,20.6910147 39.3046965,22.3001675 38.809439,21.9540478 C38.3141815,21.607928 38.8691923,19.1554665 40.4744713,14.5966631 C36.7448083,12.7051878 34.9208616,11.4830733 35.0026314,10.9303195 C35.0844012,10.3775658 37.450056,10.0845519 42.0995958,10.0512779 Z" id="star"></path>
            </g>
        </g>
    </g>
</svg>